<?xml version='1.0' encoding='UTF-8'?>
<svg width="164mm" height="164mm" version="1.1" viewBox="0 0 164 164" class="cuppa-chai-menu-qr" xmlns="http://www.w3.org/2000/svg"><path d="M16,16H20V20H16zM20,16H24V20H20zM24,16H28V20H24zM28,16H32V20H28zM32,16H36V20H32zM36,16H40V20H36zM40,16H44V20H40zM60,16H64V20H60zM64,16H68V20H64zM72,16H76V20H72zM92,16H96V20H92zM100,16H104V20H100zM104,16H108V20H104zM112,16H116V20H112zM120,16H124V20H120zM124,16H128V20H124zM128,16H132V20H128zM132,16H136V20H132zM136,16H140V20H136zM140,16H144V20H140zM144,16H148V20H144zM16,20H20V24H16zM40,20H44V24H40zM48,20H52V24H48zM52,20H56V24H52zM56,20H60V24H56zM68,20H72V24H68zM80,20H84V24H80zM84,20H88V24H84zM92,20H96V24H92zM104,20H108V24H104zM120,20H124V24H120zM144,20H148V24H144zM16,24H20V28H16zM24,24H28V28H24zM28,24H32V28H28zM32,24H36V28H32zM40,24H44V28H40zM48,24H52V28H48zM52,24H56V28H52zM64,24H68V28H64zM68,24H72V28H68zM76,24H80V28H76zM80,24H84V28H80zM88,24H92V28H88zM92,24H96V28H92zM100,24H104V28H100zM112,24H116V28H112zM120,24H124V28H120zM128,24H132V28H128zM132,24H136V28H132zM136,24H140V28H136zM144,24H148V28H144zM16,28H20V32H16zM24,28H28V32H24zM28,28H32V32H28zM32,28H36V32H32zM40,28H44V32H40zM48,28H52V32H48zM56,28H60V32H56zM80,28H84V32H80zM84,28H88V32H84zM100,28H104V32H100zM104,28H108V32H104zM108,28H112V32H108zM112,28H116V32H112zM120,28H124V32H120zM128,28H132V32H128zM132,28H136V32H132zM136,28H140V32H136zM144,28H148V32H144zM16,32H20V36H16zM24,32H28V36H24zM28,32H32V36H28zM32,32H36V36H32zM40,32H44V36H40zM48,32H52V36H48zM56,32H60V36H56zM68,32H72V36H68zM72,32H76V36H72zM80,32H84V36H80zM84,32H88V36H84zM88,32H92V36H88zM96,32H100V36H96zM100,32H104V36H100zM108,32H112V36H108zM112,32H116V36H112zM120,32H124V36H120zM128,32H132V36H128zM132,32H136V36H132zM136,32H140V36H136zM144,32H148V36H144zM16,36H20V40H16zM40,36H44V40H40zM48,36H52V40H48zM52,36H56V40H52zM68,36H72V40H68zM76,36H80V40H76zM80,36H84V40H80zM84,36H88V40H84zM88,36H92V40H88zM92,36H96V40H92zM112,36H116V40H112zM120,36H124V40H120zM144,36H148V40H144zM16,40H20V44H16zM20,40H24V44H20zM24,40H28V44H24zM28,40H32V44H28zM32,40H36V44H32zM36,40H40V44H36zM40,40H44V44H40zM48,40H52V44H48zM56,40H60V44H56zM64,40H68V44H64zM72,40H76V44H72zM80,40H84V44H80zM88,40H92V44H88zM96,40H100V44H96zM104,40H108V44H104zM112,40H116V44H112zM120,40H124V44H120zM124,40H128V44H124zM128,40H132V44H128zM132,40H136V44H132zM136,40H140V44H136zM140,40H144V44H140zM144,40H148V44H144zM52,44H56V48H52zM56,44H60V48H56zM64,44H68V48H64zM72,44H76V48H72zM84,44H88V48H84zM88,44H92V48H88zM92,44H96V48H92zM104,44H108V48H104zM24,48H28V52H24zM36,48H40V52H36zM40,48H44V52H40zM44,48H48V52H44zM48,48H52V52H48zM52,48H56V52H52zM64,48H68V52H64zM68,48H72V52H68zM84,48H88V52H84zM108,48H112V52H108zM112,48H116V52H112zM116,48H120V52H116zM124,48H128V52H124zM128,48H132V52H128zM132,48H136V52H132zM136,48H140V52H136zM140,48H144V52H140zM16,52H20V56H16zM24,52H28V56H24zM32,52H36V56H32zM36,52H40V56H36zM56,52H60V56H56zM60,52H64V56H60zM68,52H72V56H68zM76,52H80V56H76zM80,52H84V56H80zM88,52H92V56H88zM96,52H100V56H96zM100,52H104V56H100zM108,52H112V56H108zM112,52H116V56H112zM116,52H120V56H116zM120,52H124V56H120zM124,52H128V56H124zM144,52H148V56H144zM16,56H20V60H16zM20,56H24V60H20zM24,56H28V60H24zM28,56H32V60H28zM36,56H40V60H36zM40,56H44V60H40zM52,56H56V60H52zM60,56H64V60H60zM64,56H68V60H64zM76,56H80V60H76zM84,56H88V60H84zM108,56H112V60H108zM112,56H116V60H112zM120,56H124V60H120zM124,56H128V60H124zM128,56H132V60H128zM136,56H140V60H136zM144,56H148V60H144zM44,60H48V64H44zM52,60H56V64H52zM56,60H60V64H56zM60,60H64V64H60zM64,60H68V64H64zM68,60H72V64H68zM76,60H80V64H76zM80,60H84V64H80zM84,60H88V64H84zM96,60H100V64H96zM100,60H104V64H100zM108,60H112V64H108zM112,60H116V64H112zM116,60H120V64H116zM124,60H128V64H124zM132,60H136V64H132zM140,60H144V64H140zM16,64H20V68H16zM20,64H24V68H20zM24,64H28V68H24zM32,64H36V68H32zM40,64H44V68H40zM48,64H52V68H48zM52,64H56V68H52zM64,64H68V68H64zM72,64H76V68H72zM88,64H92V68H88zM92,64H96V68H92zM100,64H104V68H100zM116,64H120V68H116zM120,64H124V68H120zM124,64H128V68H124zM128,64H132V68H128zM132,64H136V68H132zM16,68H20V72H16zM20,68H24V72H20zM24,68H28V72H24zM28,68H32V72H28zM36,68H40V72H36zM44,68H48V72H44zM48,68H52V72H48zM56,68H60V72H56zM60,68H64V72H60zM64,68H68V72H64zM72,68H76V72H72zM76,68H80V72H76zM84,68H88V72H84zM92,68H96V72H92zM96,68H100V72H96zM100,68H104V72H100zM108,68H112V72H108zM112,68H116V72H112zM120,68H124V72H120zM124,68H128V72H124zM128,68H132V72H128zM132,68H136V72H132zM136,68H140V72H136zM144,68H148V72H144zM24,72H28V76H24zM28,72H32V76H28zM40,72H44V76H40zM48,72H52V76H48zM52,72H56V76H52zM56,72H60V76H56zM76,72H80V76H76zM84,72H88V76H84zM108,72H112V76H108zM116,72H120V76H116zM120,72H124V76H120zM124,72H128V76H124zM132,72H136V76H132zM144,72H148V76H144zM16,76H20V80H16zM24,76H28V80H24zM28,76H32V80H28zM44,76H48V80H44zM48,76H52V80H48zM56,76H60V80H56zM68,76H72V80H68zM72,76H76V80H72zM76,76H80V80H76zM80,76H84V80H80zM92,76H96V80H92zM96,76H100V80H96zM104,76H108V80H104zM108,76H112V80H108zM116,76H120V80H116zM124,76H128V80H124zM128,76H132V80H128zM132,76H136V80H132zM136,76H140V80H136zM144,76H148V80H144zM32,80H36V84H32zM40,80H44V84H40zM52,80H56V84H52zM56,80H60V84H56zM60,80H64V84H60zM64,80H68V84H64zM76,80H80V84H76zM88,80H92V84H88zM96,80H100V84H96zM104,80H108V84H104zM108,80H112V84H108zM120,80H124V84H120zM124,80H128V84H124zM132,80H136V84H132zM136,80H140V84H136zM140,80H144V84H140zM16,84H20V88H16zM24,84H28V88H24zM28,84H32V88H28zM32,84H36V88H32zM44,84H48V88H44zM48,84H52V88H48zM52,84H56V88H52zM56,84H60V88H56zM68,84H72V88H68zM76,84H80V88H76zM80,84H84V88H80zM84,84H88V88H84zM88,84H92V88H88zM92,84H96V88H92zM96,84H100V88H96zM108,84H112V88H108zM120,84H124V88H120zM124,84H128V88H124zM136,84H140V88H136zM24,88H28V92H24zM32,88H36V92H32zM40,88H44V92H40zM48,88H52V92H48zM52,88H56V92H52zM68,88H72V92H68zM72,88H76V92H72zM80,88H84V92H80zM84,88H88V92H84zM88,88H92V92H88zM96,88H100V92H96zM100,88H104V92H100zM104,88H108V92H104zM108,88H112V92H108zM116,88H120V92H116zM120,88H124V92H120zM124,88H128V92H124zM128,88H132V92H128zM132,88H136V92H132zM136,88H140V92H136zM140,88H144V92H140zM144,88H148V92H144zM24,92H28V96H24zM28,92H32V96H28zM36,92H40V96H36zM44,92H48V96H44zM48,92H52V96H48zM56,92H60V96H56zM80,92H84V96H80zM88,92H92V96H88zM96,92H100V96H96zM108,92H112V96H108zM116,92H120V96H116zM128,92H132V96H128zM132,92H136V96H132zM140,92H144V96H140zM144,92H148V96H144zM20,96H24V100H20zM24,96H28V100H24zM36,96H40V100H36zM40,96H44V100H40zM44,96H48V100H44zM56,96H60V100H56zM80,96H84V100H80zM88,96H92V100H88zM92,96H96V100H92zM108,96H112V100H108zM112,96H116V100H112zM116,96H120V100H116zM120,96H124V100H120zM24,100H28V104H24zM52,100H56V104H52zM64,100H68V104H64zM68,100H72V104H68zM72,100H76V104H72zM84,100H88V104H84zM88,100H92V104H88zM92,100H96V104H92zM96,100H100V104H96zM104,100H108V104H104zM112,100H116V104H112zM116,100H120V104H116zM124,100H128V104H124zM132,100H136V104H132zM144,100H148V104H144zM16,104H20V108H16zM20,104H24V108H20zM24,104H28V108H24zM36,104H40V108H36zM40,104H44V108H40zM44,104H48V108H44zM60,104H64V108H60zM68,104H72V108H68zM76,104H80V108H76zM88,104H92V108H88zM100,104H104V108H100zM112,104H116V108H112zM116,104H120V108H116zM120,104H124V108H120zM124,104H128V108H124zM136,104H140V108H136zM144,104H148V108H144zM28,108H32V112H28zM32,108H36V112H32zM52,108H56V112H52zM56,108H60V112H56zM64,108H68V112H64zM68,108H72V112H68zM72,108H76V112H72zM80,108H84V112H80zM88,108H92V112H88zM92,108H96V112H92zM104,108H108V112H104zM108,108H112V112H108zM112,108H116V112H112zM124,108H128V112H124zM128,108H132V112H128zM132,108H136V112H132zM16,112H20V116H16zM20,112H24V116H20zM24,112H28V116H24zM40,112H44V116H40zM52,112H56V116H52zM56,112H60V116H56zM76,112H80V116H76zM84,112H88V116H84zM88,112H92V116H88zM96,112H100V116H96zM104,112H108V116H104zM112,112H116V116H112zM116,112H120V116H116zM120,112H124V116H120zM124,112H128V116H124zM128,112H132V116H128zM132,112H136V116H132zM140,112H144V116H140zM144,112H148V116H144zM48,116H52V120H48zM60,116H64V120H60zM64,116H68V120H64zM72,116H76V120H72zM80,116H84V120H80zM84,116H88V120H84zM88,116H92V120H88zM96,116H100V120H96zM112,116H116V120H112zM128,116H132V120H128zM144,116H148V120H144zM16,120H20V124H16zM20,120H24V124H20zM24,120H28V124H24zM28,120H32V124H28zM32,120H36V124H32zM36,120H40V124H36zM40,120H44V124H40zM48,120H52V124H48zM56,120H60V124H56zM64,120H68V124H64zM76,120H80V124H76zM80,120H84V124H80zM88,120H92V124H88zM92,120H96V124H92zM100,120H104V124H100zM104,120H108V124H104zM112,120H116V124H112zM120,120H124V124H120zM128,120H132V124H128zM144,120H148V124H144zM16,124H20V128H16zM40,124H44V128H40zM48,124H52V128H48zM52,124H56V128H52zM56,124H60V128H56zM60,124H64V128H60zM64,124H68V128H64zM68,124H72V128H68zM76,124H80V128H76zM80,124H84V128H80zM84,124H88V128H84zM92,124H96V128H92zM104,124H108V128H104zM112,124H116V128H112zM128,124H132V128H128zM132,124H136V128H132zM140,124H144V128H140zM144,124H148V128H144zM16,128H20V132H16zM24,128H28V132H24zM28,128H32V132H28zM32,128H36V132H32zM40,128H44V132H40zM52,128H56V132H52zM60,128H64V132H60zM80,128H84V132H80zM88,128H92V132H88zM100,128H104V132H100zM104,128H108V132H104zM108,128H112V132H108zM112,128H116V132H112zM116,128H120V132H116zM120,128H124V132H120zM124,128H128V132H124zM128,128H132V132H128zM132,128H136V132H132zM16,132H20V136H16zM24,132H28V136H24zM28,132H32V136H28zM32,132H36V136H32zM40,132H44V136H40zM64,132H68V136H64zM80,132H84V136H80zM84,132H88V136H84zM92,132H96V136H92zM96,132H100V136H96zM100,132H104V136H100zM104,132H108V136H104zM108,132H112V136H108zM116,132H120V136H116zM124,132H128V136H124zM128,132H132V136H128zM140,132H144V136H140zM16,136H20V140H16zM24,136H28V140H24zM28,136H32V140H28zM32,136H36V140H32zM40,136H44V140H40zM48,136H52V140H48zM56,136H60V140H56zM64,136H68V140H64zM68,136H72V140H68zM72,136H76V140H72zM80,136H84V140H80zM84,136H88V140H84zM88,136H92V140H88zM108,136H112V140H108zM128,136H132V140H128zM136,136H140V140H136zM140,136H144V140H140zM144,136H148V140H144zM16,140H20V144H16zM40,140H44V144H40zM56,140H60V144H56zM64,140H68V144H64zM68,140H72V144H68zM72,140H76V144H72zM76,140H80V144H76zM84,140H88V144H84zM88,140H92V144H88zM92,140H96V144H92zM96,140H100V144H96zM100,140H104V144H100zM112,140H116V144H112zM116,140H120V144H116zM120,140H124V144H120zM16,144H20V148H16zM20,144H24V148H20zM24,144H28V148H24zM28,144H32V148H28zM32,144H36V148H32zM36,144H40V148H36zM40,144H44V148H40zM52,144H56V148H52zM60,144H64V148H60zM64,144H68V148H64zM72,144H76V148H72zM76,144H80V148H76zM80,144H84V148H80zM84,144H88V148H84zM92,144H96V148H92zM96,144H100V148H96zM100,144H104V148H100zM112,144H116V148H112zM116,144H120V148H116zM128,144H132V148H128zM136,144H140V148H136zM144,144H148V148H144z" id="qr-path" fill="#000000" fill-opacity="1" fill-rule="nonzero" stroke="none"/></svg>